<svg id="Layer_1" viewBox="0 0 512 512" xmlns="http://www.w3.org/2000/svg" data-name="Layer 1" width="300" height="300" version="1.1" xmlns:xlink="http://www.w3.org/1999/xlink" xmlns:svgjs="http://svgjs.dev/svgjs"><g width="100%" height="100%" transform="matrix(1,0,0,1,0,0)"><path d="m324.967 329.623a7 7 0 0 1 -7 7h-32.2a7 7 0 0 1 0-14h32.2a7 7 0 0 1 7 7zm-65.767-166.339a7 7 0 0 0 7-7v-8.475a7 7 0 0 0 -14 0v8.475a7 7 0 0 0 7 7zm120.811 293.8a29.273 29.273 0 0 1 -29.336 30.229h-241.795a29.271 29.271 0 0 1 -29.336-30.223l.187-6.128c.7-22.862 1.413-46.5 4-68.063 9.654-80.535 35.79-94.309 75.353-115.16q4.389-2.315 9.069-4.814c.125-.073.252-.14.38-.2 8.612-4.632 17.92-9.871 27.884-16.355v-14.237a68.985 68.985 0 0 1 -34.915-51.45 28.948 28.948 0 0 1 -21.009-42.935c.38-.671.788-1.32 1.215-1.951v-44.826a67.559 67.559 0 0 1 31.792-57.149c18.687-11.531 41.3-12.179 62.028-1.778 6.024 3.039 12.968 6.152 19.372 4.632a48.5 48.5 0 0 1 42.049 9.161c13.09 10.369 20.906 27.241 20.906 45.134v44.807a28.944 28.944 0 0 1 -19.793 44.887 68.983 68.983 0 0 1 -35 51.517v14.1c13.772 8.978 26.308 15.589 37.461 21.471 39.541 20.852 65.664 34.629 75.31 115.147 2.646 22.057 3.36 46.255 4.051 69.657zm-121.354-196.984-18.674 17.421 20.071 18.749 17.515-24.957c-5.986-3.324-12.289-7.001-18.912-11.213zm-16.219 51.98 1.2-11.974-13.917-13-13.89 12.994 1.213 12.065a7.2 7.2 0 0 0 1.9 1 6.939 6.939 0 0 1 .738.264 33.177 33.177 0 0 0 10.138 1.4 31.989 31.989 0 0 0 10.041-1.472c.114-.046.232-.085.349-.125a7.856 7.856 0 0 0 2.228-1.152zm-5.638 16.251a52.256 52.256 0 0 1 -7.188.494h-.541a53.769 53.769 0 0 1 -6.431-.449l-4.97 29.652h24.1zm-7.075-60.388 19.329-18.032v-11.892a68.573 68.573 0 0 1 -38.637-.025v11.916zm71.547-128.9a14.942 14.942 0 0 0 -2.639-1.17v28.318a14.984 14.984 0 0 0 8.257-6.794 14.93 14.93 0 0 0 -5.618-20.354zm-140.348-1.172a14.928 14.928 0 0 0 -2.64 27.147 15.266 15.266 0 0 0 2.64 1.177zm5.568-31.019c16.705-3.494 32.594-10.88 48.577-22.579a7 7 0 0 1 11.044 4.506c3.27 19.745 28.723 19.949 56.777 18.358 3.011-.171 5.856-.333 8.486-.429a7 7 0 0 1 7.257 7v9.79a28.362 28.362 0 0 1 5.216 1.363v-33.89c0-13.652-5.832-26.421-15.6-34.158a34.776 34.776 0 0 0 -30.139-6.508c-11.9 2.818-22.946-2.756-28.88-5.752-16.523-8.289-33.71-7.87-48.381 1.185a53.463 53.463 0 0 0 -25.143 45.233v33.9a29.032 29.032 0 0 1 5.216-1.372v-9.794a7 7 0 0 1 5.571-6.853zm39.512 114.5c.2.078.389.166.577.261a54.681 54.681 0 0 0 46.109.13 6.926 6.926 0 0 1 .876-.4 54.919 54.919 0 0 0 31.064-49.413v-41.642a.177.177 0 0 0 0-.023v-9.2l-.946.054c-21.868 1.238-56.831 3.226-68.269-20.065a135.843 135.843 0 0 1 -40.487 18.207v52.67a54.921 54.921 0 0 0 31.077 49.425zm-24.069 50.006 17.481 24.909 20.051-18.747-18.6-17.374c-6.631 4.212-12.94 7.888-18.931 11.216zm-46.335 201.955-8.33-96.457a17.072 17.072 0 0 1 4.344-13.159 16.851 16.851 0 0 1 12.781-5.671h59.073l5.743-34.262a13.22 13.22 0 0 1 -6.046-9.622l-.2-2.028a6.992 6.992 0 0 1 -10.382-1.2l-23.053-32.852c-1.323.7-2.633 1.39-3.92 2.069-38.171 20.118-59.2 31.2-67.977 104.439-2.512 20.942-3.22 44.266-3.905 66.821l-.187 6.123a15.267 15.267 0 0 0 15.339 15.8zm181.95-100.227a2.928 2.928 0 0 0 -2.39-1.056h-170.76a2.929 2.929 0 0 0 -2.391 1.056 3.108 3.108 0 0 0 -.781 2.576l8.432 97.651h160.24l8.433-97.662a2.993 2.993 0 0 0 -.783-2.565zm48.467 84.414-.135-4.526c-.681-23.093-1.386-46.971-3.957-68.4-8.772-73.226-29.788-84.308-67.938-104.428q-1.978-1.042-4.016-2.121l-23.081 32.886a6.991 6.991 0 0 1 -10.382 1.2l-.2 2.024c0 .049-.01.1-.016.146a13.151 13.151 0 0 1 -6.068 9.4l5.752 34.341h59.184a17.177 17.177 0 0 1 17.124 18.821l-8.33 96.466h26.724a15.268 15.268 0 0 0 15.339-15.809zm-112.767-34.843a23.471 23.471 0 1 1 -23.471-23.471 23.5 23.5 0 0 1 23.471 23.471zm-14 0a9.468 9.468 0 1 0 -9.468 9.468 9.477 9.477 0 0 0 9.465-9.468zm-22.709-214.812h26.476a7 7 0 1 0 0-14h-26.476a7 7 0 0 0 0 14zm-9.185-60.038a7 7 0 1 0 -14 0v8.475a7 7 0 1 0 14 0zm-175.239 72.029h63.61a7 7 0 0 0 0-14h-63.61a7 7 0 1 0 0 14zm0-56.268h63.61a7 7 0 0 0 0-14.005h-63.61a7 7 0 0 0 0 14.005zm0 28.148h63.61a7 7 0 0 0 0-14h-63.61a7 7 0 1 0 0 14zm88.725 83.878h-113.842a7 7 0 0 1 -7-7v-139.638a7 7 0 0 1 7-7h113.842a7 7 0 0 1 7 7v139.636a7 7 0 0 1 -7 7.002zm-7-139.636h-99.842v125.632h99.838zm-81.724 112h63.61a7 7 0 1 0 0-14h-63.611a7 7 0 1 0 0 14zm479.882-88.246v20.888a23.118 23.118 0 0 1 -7.4 17.115v62.766c0 10.566-8.3 19.163-18.51 19.163h-128.835c-10.191 0-18.482-8.6-18.482-19.163v-62.75a23.145 23.145 0 0 1 -7.4-17.127v-20.892c0-11.242 7.44-18.227 19.418-18.227h20.041v-12.9c0-9.253 7.274-16.782 16.214-16.782h69.279c8.941 0 16.216 7.529 16.216 16.782v12.9h20.041c11.978 0 19.418 6.985 19.418 18.227zm-127.164-18.227h73.7v-12.9a2.578 2.578 0 0 0 -2.211-2.778h-69.278a2.579 2.579 0 0 0 -2.211 2.778zm105.764 64.473a163.992 163.992 0 0 1 -49.889 15.529v9.575a7 7 0 0 1 -7 7h-24.043a7 7 0 0 1 -7-7v-9.545a163.183 163.183 0 0 1 -49.89-15.527v54.5c0 2.845 2.009 5.159 4.479 5.159h128.835c2.484 0 4.5-2.314 4.5-5.159zm-63.9 18.102v-16.526h-10.03v16.526zm71.3-64.348c0-2.543 0-4.223-5.413-4.223h-141.795c-5.415 0-5.415 1.68-5.415 4.223v20.888a9.1 9.1 0 0 0 4.831 8.258c17.4 9.7 35.016 15.917 52.458 18.524v-6.854a7 7 0 0 1 7-7h24.038a7 7 0 0 1 7 7v6.823c17.371-2.6 34.977-8.811 52.446-18.5a9.085 9.085 0 0 0 4.85-8.251z" fill="#ffffff" fill-opacity="1" data-original-color="#000000ff" stroke="none" stroke-opacity="1"/></g></svg>